<svg width="1728" height="745" viewBox="0 0 1728 745" fill="none" xmlns="http://www.w3.org/2000/svg">
<rect x="283.32" y="66.1976" width="70.7492" height="70.7492" transform="rotate(-20 283.32 66.1976)" fill="#252525"/>
<rect x="272" y="66.1976" width="70.7492" height="70.7492" transform="rotate(-20 272 66.1976)" fill="#5552B9"/>
<rect width="147.782" height="176.522" transform="matrix(-0.908557 -0.417761 -0.276848 0.960914 1612.14 435.737)" fill="#252345"/>
<rect width="147.782" height="176.522" transform="matrix(-0.908557 -0.417761 -0.276848 0.960914 1635 435.737)" fill="#5552B9"/>
<path d="M148.739 189C46.3262 303.36 -31.034 556.877 148.739 674.239C446.34 868.524 758.891 602.015 1049 538.517" stroke="#393771" stroke-width="2"/>
<path d="M1074.75 474.545L1022.38 569.622L1220.37 648.06L1074.75 474.545Z" fill="#252345" stroke="#5552B9" stroke-width="2"/>
<path d="M1084.38 455.581L1032.01 550.658L1230 629.096L1084.38 455.581Z" fill="#5552B9" stroke="#5552B9" stroke-width="2"/>
<path d="M144.667 187C144.667 189.946 147.054 192.333 150 192.333C152.946 192.333 155.333 189.946 155.333 187C155.333 184.054 152.946 181.667 150 181.667C147.054 181.667 144.667 184.054 144.667 187ZM-47.6431 304.934C-33.5153 299.536 -10.5192 289.565 12.5947 277.181C35.6885 264.808 58.9911 249.979 73.6586 234.845L72.2225 233.453C57.7787 248.356 34.7028 263.067 11.6502 275.418C-11.3825 287.759 -34.3009 297.695 -48.3569 303.066L-47.6431 304.934ZM73.6586 234.845C102.623 204.961 136.838 191.136 150.23 187.973L149.77 186.027C136.049 189.267 101.481 203.265 72.2225 233.453L73.6586 234.845Z" fill="#393771"/>
</svg>
