<svg width="1728" height="745" viewBox="0 0 1728 745" fill="none" xmlns="http://www.w3.org/2000/svg">
<rect x="283.32" y="66.1976" width="70.7492" height="70.7492" transform="rotate(-20 283.32 66.1976)" fill="#252525"/>
<rect x="272" y="66.1976" width="70.7492" height="70.7492" transform="rotate(-20 272 66.1976)" fill="#5552B9"/>
<rect width="147.782" height="176.522" transform="matrix(-0.908557 -0.417761 -0.276848 0.960914 1612.14 435.737)" fill="#252345"/>
<rect width="147.782" height="176.522" transform="matrix(-0.908557 -0.417761 -0.276848 0.960914 1635 435.737)" fill="#5552B9"/>
<path d="M148.739 189C46.3262 303.36 -31.034 556.877 148.739 674.239C446.34 868.524 758.891 602.015 1049 538.517" stroke="#393771" stroke-width="2"/>
<path d="M1074.75 474.545L1022.38 569.622L1220.37 648.06L1074.75 474.545Z" fill="#252345" stroke="#5552B9" stroke-width="2"/>
<path d="M1084.38 455.581L1032.01 550.658L1230 629.096L1084.38 455.581Z" fill="#5552B9" stroke="#5552B9" stroke-width="2"/>
<path d="M144.667 187C144.667 189.946 147.054 192.333 150 192.333C152.946 192.333 155.333 189.946 155.333 187C155.333 184.054 152.946 181.667 150 181.667C147.054 181.667 144.667 184.054 144.667 187ZM-47.6431 304.934C-33.5153 299.536 -10.5192 289.565 12.5947 277.181C35.6885 264.808 58.9911 249.979 73.6586 234.845L72.2225 233.453C57.7787 248.356 34.7028 263.067 11.6502 275.418C-11.3825 287.759 -34.3009 297.695 -48.3569 303.066L-47.6431 304.934ZM73.6586 234.845C102.623 204.961 136.838 191.136 150.23 187.973L149.77 186.027C136.049 189.267 101.481 203.265 72.2225 233.453L73.6586 234.845Z" fill="#393771"/>
<path d="M1509.08 108.374L1509.2 107.382L1509.19 107.38L1509.17 107.378L1509.08 108.374ZM1400.69 142.411L1401.13 141.514L1400.69 142.411ZM1359 263.972L1368.99 269.759L1369.01 258.212L1359 263.972ZM1787.17 13.3804C1740.83 5.54414 1676.12 -2.09078 1632.69 0.523226C1621.83 1.17702 1612.26 2.47392 1604.62 4.58619C1597.01 6.68916 1591.16 9.64313 1587.93 13.7317C1586.3 15.7968 1585.35 18.1432 1585.19 20.7723C1585.02 23.3901 1585.64 26.2267 1587.06 29.2838C1589.89 35.374 1595.94 42.4886 1605.7 50.7863L1607 49.2622C1597.31 41.0277 1591.52 34.1391 1588.88 28.4426C1587.56 25.6062 1587.05 23.1036 1587.18 20.897C1587.32 18.7018 1588.11 16.7389 1589.5 14.9707C1592.33 11.3924 1597.67 8.58322 1605.15 6.51387C1612.6 4.4538 1622.02 3.16922 1632.81 2.51961C1676 -0.0799969 1740.53 7.52073 1786.83 15.3524L1787.17 13.3804ZM1605.7 50.7863C1615.39 59.0209 1622.11 66.1929 1626.35 72.4132C1630.59 78.6402 1632.29 83.8323 1632.1 88.1353C1631.91 92.3964 1629.86 95.9455 1626.24 98.9097C1622.59 101.894 1617.36 104.259 1610.94 106.074C1598.11 109.703 1580.79 111.051 1562.58 110.975C1544.39 110.9 1525.39 109.404 1509.2 107.382L1508.96 109.366C1525.2 111.396 1544.29 112.899 1562.58 112.975C1580.84 113.051 1598.38 111.704 1611.49 107.999C1618.04 106.147 1623.55 103.685 1627.5 100.458C1631.47 97.2114 1633.88 93.1654 1634.1 88.2233C1634.31 83.3231 1632.37 77.7038 1628 71.2872C1623.62 64.8638 1616.76 57.56 1607 49.2622L1605.7 50.7863ZM1509.17 107.378C1473.04 104.136 1424.16 101.937 1395.13 105.925C1387.88 106.922 1381.79 108.314 1377.43 110.211C1373.13 112.08 1370.16 114.603 1369.89 118.05C1369.62 121.432 1372.02 125.121 1376.85 129.164C1381.73 133.26 1389.38 137.946 1400.25 143.308L1401.13 141.514C1390.32 136.179 1382.84 131.576 1378.13 127.631C1373.36 123.633 1371.7 120.53 1371.88 118.208C1372.06 115.952 1374.05 113.862 1378.23 112.045C1382.33 110.257 1388.21 108.895 1395.41 107.906C1424.19 103.952 1472.86 106.129 1508.99 109.37L1509.17 107.378ZM1400.25 143.308C1426.74 156.38 1446.84 170.394 1459.88 184.043C1472.94 197.718 1478.75 210.869 1477.08 222.264C1475.41 233.609 1466.24 243.64 1448.3 250.934C1430.37 258.225 1403.87 262.689 1368.01 262.984L1368.02 264.984C1404.01 264.688 1430.79 260.212 1449.05 252.787C1467.31 245.365 1477.24 234.904 1479.06 222.555C1480.86 210.257 1474.55 196.512 1461.32 182.662C1448.07 168.787 1427.75 154.649 1401.13 141.514L1400.25 143.308Z" fill="#393771"/>
</svg>
