<svg width="369" height="606" viewBox="0 0 369 606" fill="none" xmlns="http://www.w3.org/2000/svg">
<path d="M150.081 108.374L150.205 107.382L150.187 107.38L150.17 107.378L150.081 108.374ZM41.6903 142.411L42.1328 141.514L41.6903 142.411ZM0 263.972L9.99223 269.759L10.0078 258.212L0 263.972ZM428.167 13.3804C381.832 5.54414 317.121 -2.09078 273.692 0.523226C262.83 1.17702 253.257 2.47392 245.617 4.58619C238.011 6.68916 232.16 9.64313 228.933 13.7317C227.304 15.7968 226.351 18.1432 226.187 20.7723C226.023 23.3901 226.645 26.2267 228.062 29.2838C230.886 35.374 236.937 42.4886 246.702 50.7863L247.997 49.2622C238.307 41.0277 232.518 34.1391 229.877 28.4426C228.562 25.6062 228.045 23.1036 228.183 20.897C228.32 18.7018 229.108 16.7389 230.503 14.9707C233.327 11.3924 238.666 8.58322 246.15 6.51387C253.601 4.4538 263.02 3.16922 273.812 2.51961C317.002 -0.0799969 381.526 7.52073 427.833 15.3524L428.167 13.3804ZM246.702 50.7863C256.392 59.0209 263.108 66.1929 267.346 72.4132C271.587 78.6402 273.29 83.8323 273.101 88.1353C272.913 92.3964 270.863 95.9455 267.236 98.9097C263.585 101.894 258.362 104.259 251.943 106.074C239.109 109.703 221.792 111.051 203.584 110.975C185.393 110.9 166.385 109.404 150.205 107.382L149.957 109.366C166.2 111.396 185.29 112.899 203.576 112.975C221.844 113.051 239.383 111.704 252.487 107.999C259.037 106.147 264.554 103.685 268.502 100.458C272.474 97.2114 274.882 93.1654 275.099 88.2233C275.315 83.3231 273.37 77.7038 268.998 71.2872C264.623 64.8638 257.761 57.56 247.997 49.2622L246.702 50.7863ZM150.17 107.378C114.039 104.136 65.1622 101.937 36.1347 105.925C28.8778 106.922 22.7871 108.314 18.4277 110.211C14.1341 112.08 11.159 114.603 10.8861 118.05C10.6182 121.432 13.0206 125.121 17.8458 129.164C22.7345 133.26 30.382 137.946 41.2478 143.308L42.1328 141.514C31.3205 136.179 23.8385 131.576 19.1302 127.631C14.3583 123.633 12.696 120.53 12.8798 118.208C13.0585 115.952 15.0512 113.862 19.2257 112.045C23.3343 110.257 29.2117 108.895 36.4069 107.906C65.1876 103.952 113.863 106.129 149.991 109.37L150.17 107.378ZM41.2478 143.308C67.7387 156.38 87.844 170.394 100.877 184.043C113.935 197.718 119.753 210.869 118.078 222.264C116.409 233.609 107.24 243.64 89.2994 250.934C71.3684 258.225 44.8691 262.689 9.00698 262.984L9.02343 264.984C45.0059 264.688 71.7901 260.212 90.0527 252.787C108.306 245.365 118.24 234.904 120.056 222.555C121.865 210.257 115.549 196.512 102.324 182.662C89.0748 168.787 68.7496 154.649 42.1328 141.514L41.2478 143.308Z" fill="#393771"/>
</svg>
