<svg xmlns="http://www.w3.org/2000/svg" width="156" height="124" viewBox="0 0 156 124" fill="none"><path d="M144.667 6C144.667 8.94552 147.054 11.3333 150 11.3333C152.946 11.3333 155.333 8.94552 155.333 6C155.333 3.05448 152.946 0.666667 150 0.666667C147.054 0.666667 144.667 3.05448 144.667 6ZM-47.6431 123.934C-33.5153 118.536 -10.5192 108.565 12.5947 96.1813C35.6885 83.8081 58.9911 68.9785 73.6586 53.8452L72.2225 52.4533C57.7787 67.3558 34.7028 82.0673 11.6502 94.4184C-11.3825 106.759 -34.3009 116.695 -48.3569 122.066L-47.6431 123.934ZM73.6586 53.8452C102.623 23.9614 136.838 10.1358 150.23 6.97323L149.77 5.02677C136.049 8.26716 101.481 22.2655 72.2225 52.4533L73.6586 53.8452Z" fill="#393771"/></svg>