<svg width="1231" height="564" viewBox="0 0 1231 564" fill="none" xmlns="http://www.w3.org/2000/svg"><path d="M148.739 8C46.3262 122.36 -31.034 375.877 148.739 493.239C446.34 687.524 758.891 421.015 1049 357.517" stroke="#393771" stroke-width="2"/><path d="M1074.75 293.545L1022.38 388.622L1220.37 467.06L1074.75 293.545Z" fill="#252345" stroke="#5552B9" stroke-width="2"/><path d="M1084.38 274.581L1032.01 369.658L1230 448.096L1084.38 274.581Z" fill="#5552B9" stroke="#5552B9" stroke-width="2"/><path d="M144.667 6C144.667 8.94552 147.054 11.3333 150 11.3333C152.946 11.3333 155.333 8.94552 155.333 6C155.333 3.05448 152.946 0.666667 150 0.666667C147.054 0.666667 144.667 3.05448 144.667 6ZM-47.6431 123.934C-33.5153 118.536 -10.5192 108.565 12.5947 96.1813C35.6885 83.8081 58.9911 68.9785 73.6586 53.8452L72.2225 52.4533C57.7787 67.3558 34.7028 82.0673 11.6502 94.4184C-11.3825 106.759 -34.3009 116.695 -48.3569 122.066L-47.6431 123.934ZM73.6586 53.8452C102.623 23.9614 136.838 10.1358 150.23 6.97323L149.77 5.02677C136.049 8.26716 101.481 22.2655 72.2225 52.4533L73.6586 53.8452Z" fill="#393771"/></svg>
